<svg xmlns="http://www.w3.org/2000/svg" xmlns:xlink="http://www.w3.org/1999/xlink" fill="none" version="1.1" width="18.333173751831055" height="21.999658584594727" viewBox="0 0 18.333173751831055 21.999658584594727"><g><path d="M14.3563,14.2557C17.2149,11.4225,17.2149,6.802,14.3563,3.96882C11.4917,1.12074,6.84238,1.12074,3.97779,3.96882C1.11923,6.802,1.11923,11.4225,3.97779,14.2557L9.16704,19.4147L14.3563,14.2557ZM2.68529,15.5564C-0.895098,12.0063,-0.895098,6.21821,2.68529,2.66807C6.26488,-0.889511,12.0692,-0.889511,15.6479,2.66899C19.2283,6.21912,19.2283,12.0072,15.6479,15.5573L9.16704,21.9997L2.68529,15.5555L2.68529,15.5564ZM9.16704,10.9997C10.1796,10.9997,11.0004,10.1788,11.0004,9.16632C11.0004,8.1538,10.1796,7.33299,9.16704,7.33299C8.15452,7.33299,7.33371,8.1538,7.33371,9.16632C7.33371,10.1788,8.15452,10.9997,9.16704,10.9997ZM9.16704,12.833C7.142,12.833,5.50038,11.1914,5.50038,9.16632C5.50038,7.14128,7.142,5.49966,9.16704,5.49966C11.1921,5.49966,12.8337,7.14128,12.8337,9.16632C12.8337,11.1914,11.1921,12.833,9.16704,12.833Z" fill="#555555" fill-opacity="1"/></g></svg>