<svg xmlns="http://www.w3.org/2000/svg" xmlns:xlink="http://www.w3.org/1999/xlink" fill="none" version="1.1" width="47.647850036621094" height="47.646080017089844" viewBox="0 0 47.647850036621094 47.646080017089844"><g transform="matrix(-1,0,0,1,95.29570007324219,0)"><path d="M63.86945003662109,40.5717L63.86945003662109,40.6355C63.523950036621095,40.6355,63.27065003662109,40.6621,63.121750036621094,40.6621L62.9463500366211,40.6621C59.2648500366211,40.6621,56.299020036621094,37.7175,56.1962600366211,34.0413C56.13956003662109,32.2359,56.791550036621096,30.489,58.02815003662109,29.1762C59.2648500366211,27.8634,60.9373500366211,27.0945,62.74265003662109,27.0431C62.76035003662109,27.0431,62.94105003662109,27.0325,62.9570500366211,27.0325C64.37085003662109,27.0325,65.72615003662109,27.4754,66.8919500366211,28.324C68.5272500366211,28.9016,70.18025003662109,28.0937,71.7942500366211,25.9287C73.40115003662109,23.7796,73.7395500366211,22.0753,72.7987500366211,20.8652C72.4639500366211,20.6243,72.1414500366211,20.3372,71.8225500366211,19.9971C71.76585003662109,19.9422,71.71445003662109,19.8837,71.66485003662109,19.8217C70.6089500366211,18.6293,70.00305003662109,17.1199,69.9552500366211,15.5643C69.8524500366211,11.8331,72.7934500366211,8.71495,76.50865003662109,8.61042C76.5264500366211,8.61042,76.70005003662109,8.60688,76.7159500366211,8.60688C79.84125003662109,8.60688,82.6050500366211,10.8215,83.28545003662109,13.8759C83.8346500366211,15.5714,85.2378500366211,22.2879,78.4894500366211,31.3093C72.24605003662109,39.6699,66.1868500366211,40.5717,63.86945003662109,40.5717ZM63.65155003662109,37.1648C64.65965003662109,37.1878,69.9569500366211,37.0461,75.7557500366211,29.2719C81.67845003662109,21.3524,80.3302500366211,15.7982,79.9989500366211,14.7635C79.6215500366211,13.107,78.25555003662109,12.0103,76.7088500366211,12.0103C74.75645003662109,12.0652,73.30015003662109,13.6137,73.34975003662109,15.4669C73.3798500366211,16.4502,73.8458500366211,17.1677,74.2302500366211,17.5929C74.24265003662109,17.6071,74.2550500366211,17.6212,74.26575003662109,17.6354C74.4801500366211,17.8675,74.68035003662109,18.0411,74.88055003662109,18.1705C75.0062500366211,18.2537,75.1232500366211,18.3529,75.2224500366211,18.4663C76.26595003662109,19.6427,78.28565003662109,22.9239,74.5155500366211,27.9644C72.0812500366211,31.2225,69.5849500366211,31.9046,67.92135003662109,31.9064C67.06555003662109,31.9064,66.2151500366211,31.731,65.3948500366211,31.389C65.2531500366211,31.3306,65.1184500366211,31.2509,64.9980500366211,31.1552C64.57455003662109,30.8221,63.8765500366211,30.4235,62.955250036621095,30.4235C61.94535003662109,30.4518,61.11805003662109,30.8239,60.50675003662109,31.4723C59.89375003662109,32.1243,59.5713500366211,32.9765,59.5978500366211,33.8712C59.6492500366211,35.6996,61.121550036621095,37.1276,62.9463500366211,37.1276C62.955250036621095,37.1276,62.9570500366211,37.1293,62.94995003662109,37.1311C63.01375003662109,37.1205,63.082850036621096,37.1116,63.1235500366211,37.1081C63.30255003662109,37.1098,63.4814500366211,37.124,63.65155003662109,37.1648ZM71.47355003662109,47.6461C68.2721500366211,47.6461,65.1663500366211,47.0207,62.241250036621096,45.7911C61.374950036621094,45.4244,60.969150036621095,44.4287,61.3341500366211,43.5623C61.69915003662109,42.6942,62.69655003662109,42.292,63.562950036621096,42.6535C66.06635003662109,43.7058,68.7274500366211,44.2427,71.47355003662109,44.2427C82.7344500366211,44.2427,91.8940500366211,35.083,91.8940500366211,23.8222C91.8940500366211,12.5631,82.7344500366211,3.40165,71.47355003662109,3.40165C60.21265003662109,3.40165,51.05304003662109,12.5631,51.05304003662109,23.8239C51.05304003662109,27.6738,52.13023003662109,31.4227,54.1676700366211,34.6667C54.665520036621096,35.4639,54.42634003662109,36.5128,53.63085003662109,37.0124C52.8353600366211,37.512,51.78475003662109,37.2728,51.28513003662109,36.4756C48.90398003662109,32.6859,47.647850036621094,28.3116,47.647850036621094,23.8239C47.647850036621094,10.6886,58.33465003662109,0,71.47175003662109,0C84.60885003662109,0,95.29575003662109,10.6868,95.29575003662109,23.8239C95.29575003662109,36.9592,84.60885003662109,47.6461,71.47355003662109,47.6461Z" fill="#99CC00" fill-opacity="1"/></g></svg>