<svg xmlns="http://www.w3.org/2000/svg" xmlns:xlink="http://www.w3.org/1999/xlink" fill="none" version="1.1" width="26" height="26" viewBox="0 0 26 26"><defs><clipPath id="master_svg0_200_1754"><rect x="0" y="0" width="26" height="26" rx="0"/></clipPath></defs><g clip-path="url(#master_svg0_200_1754)"><g><path d="M12.994353125,1.73333740234375C8.588653125,1.73333740234375,5.021019325,5.19436740234375,5.001953125,9.50126740234375C5.001953125,11.04783740234375,5.462153125,12.52033740234375,6.316253125,13.77873740234375L6.399883125,13.89783740234375L6.448423125,13.97843740234375L6.488283125,14.03913740234375C6.515153125,14.07853740234375,6.543753125,14.11623740234375,6.575823125,14.15353740234375L6.595753125,14.17523740234375L11.678323125,20.08673740234375C12.371393125,20.89233740234375,13.619543125,20.89023740234375,14.309953125,20.08243740234375L19.364753125,14.17003740234375L19.331453125,14.20683740234375C19.381253125,14.15473740234375,19.426653125,14.09843740234375,19.467053125,14.03873740234375L19.506053125,13.97893740234375C19.522053125,13.95373740234375,19.553253124999998,13.90093740234375,19.552453125,13.90263740234375C20.448553125,12.65033740234375,20.951253125,11.12410740234375,20.969853125,9.51556740234375C20.969853125,5.20390740234375,17.392653125000002,1.73333740234375,12.994353125,1.73333740234375ZM12.994353125,3.46666740234375C16.446753125,3.46666740234375,19.236553125,6.17326740234375,19.236553125,9.50516740234375C19.224753125,10.73349740234375,18.834853125000002,11.92833740234375,18.119853125,12.92723740234375L18.044853125,13.04593740234375L12.992193125,18.95663740234375L7.909193125,13.04503740234375L7.860223125,12.96403740234375L7.835093125,12.92723740234375C7.1181931249999995,11.93033740234375,6.733393125,10.73304740234375,6.735293125,9.50516740234375C6.750453125,6.16633740234375,9.532883125,3.46666740234375,12.994353125,3.46666740234375Z" fill="#99CC00" fill-opacity="1"/></g><g><path d="M19.9000875,18.147506875C20.2907875,17.919559875,20.7909875,18.030325885,21.0488875,18.401872875L21.0852875,18.459072875L22.9485875,21.651436875C23.5995875,22.766576875,22.8463875,24.176406874999998,21.5575875,24.255336875L21.4418875,24.258366875L4.5306475,24.166076875C3.2456415,24.158966875,2.4148685,22.805046875000002,2.9905815000000002,21.656206875L3.0447475,21.556106875L4.8205475,18.527971875C5.0552875,18.124968875,5.566857499999999,17.979994075,5.978127499999999,18.199922875C6.389397499999999,18.419850875,6.5528775,18.925806875,6.3480475,19.344806875L6.3159775,19.404606875L4.5401775,22.432736875L21.4514875,22.525036874999998L19.5880875,19.332676875C19.3470875,18.919234875,19.4866875,18.388650875,19.9000875,18.147506875Z" fill="#99CC00" fill-opacity="1"/></g><g><path d="M12.99792,6.19403076171875C11.08333,6.19403037428875,9.53125,7.74630076171875,9.53125,9.66113076171875C9.53125,11.57596076171875,11.08372,13.12823076171875,12.99878,13.12823076171875C14.91337,13.12823076171875,16.46545,11.57596076171875,16.46545,9.66113076171875C16.46545,7.74630076171875,14.912980000000001,6.19403076171875,12.99792,6.19403076171875ZM12.99792,7.9273607617187505C13.955449999999999,7.92760076171875,14.73149,8.70403076171875,14.73125,9.66156076171875C14.731010000000001,10.61910076171875,13.95458,11.39514076171875,12.99705,11.39490076171875C12.03952,11.39466076171875,11.26348,10.618230761718749,11.26372,9.66070076171875C11.26396,8.703160761718749,12.040379999999999,7.92712076171875,12.99792,7.9273607617187505Z" fill="#99CC00" fill-opacity="1"/></g></g></svg>